0
SECTION
2
HEADER
9
$INSUNITS
70
4
9
$ACADVER
1
AC1014
9
$HANDSEED
5
FFFF
0
ENDSEC
0
SECTION
2
TABLES
0
TABLE
2
VPORT
5
8
100
AcDbSymbolTable
0
ENDTAB
0
TABLE
2
LTYPE
5
5
100
AcDbSymbolTable
0
LTYPE
5
14
100
AcDbSymbolTableRecord
100
AcDbLinetypeTableRecord
2
BYBLOCK
70
0
0
LTYPE
5
15
100
AcDbSymbolTableRecord
100
AcDbLinetypeTableRecord
2
BYLAYER
70
0
0
ENDTAB
0
TABLE
2
LAYER
5
2
100
AcDbSymbolTable
70
2
0
LAYER
5
50
100
AcDbSymbolTableRecord
100
AcDbLayerTableRecord
2
0
70
0
6
CONTINUOUS
0
ENDTAB
0
TABLE
2
STYLE
5
3
100
AcDbSymbolTable
70
1
0
STYLE
5
11
100
AcDbSymbolTableRecord
100
AcDbTextStyleTableRecord
2
STANDARD
70
0
0
ENDTAB
0
TABLE
2
VIEW
5
6
100
AcDbSymbolTable
70
0
0
ENDTAB
0
TABLE
2
UCS
5
7
100
AcDbSymbolTable
70
0
0
ENDTAB
0
TABLE
2
APPID
5
9
100
AcDbSymbolTable
70
2
0
APPID
5
12
100
AcDbSymbolTableRecord
100
AcDbRegAppTableRecord
2
ACAD
70
0
0
ENDTAB
0
TABLE
2
DIMSTYLE
5
A
100
AcDbSymbolTable
70
1
0
ENDTAB
0
TABLE
2
BLOCK_RECORD
5
1
100
AcDbSymbolTable
70
1
0
BLOCK_RECORD
5
1F
100
AcDbSymbolTableRecord
100
AcDbBlockTableRecord
2
*MODEL_SPACE
0
BLOCK_RECORD
5
1B
100
AcDbSymbolTableRecord
100
AcDbBlockTableRecord
2
*PAPER_SPACE
0
ENDTAB
0
ENDSEC
0
SECTION
2
BLOCKS
0
BLOCK
5
20
100
AcDbEntity
100
AcDbBlockBegin
2
*MODEL_SPACE
0
ENDBLK
5
21
100
AcDbEntity
100
AcDbBlockEnd
0
BLOCK
5
1C
100
AcDbEntity
100
AcDbBlockBegin
2
*PAPER_SPACE
0
ENDBLK
5
1D
100
AcDbEntity
100
AcDbBlockEnd
0
ENDSEC
0
SECTION
2
ENTITIES
0
LWPOLYLINE
5
100
100
AcDbEntity
8
0
100
AcDbPolyline
90
20
70
1
43
0.0
10
-16.463514231462231
20
-14.995136230171259
10
17.734277287465552
20
-14.995136230171259
10
31.242366933340584
20
-15.000000223517418
10
37.500000558793545
20
-15.000000223517418
42
0.41421356237309503
10
42.500000633299351
20
-10.000000149011612
10
42.500000633299351
20
45.000000670552254
42
0.41421356237309503
10
37.500000558793545
20
50.00000074505806
10
31.242366933340602
20
50.00000074505806
10
17.757226355954643
20
50.00000074505806
10
-16.50000024586916
20
50.00000074505806
10
-16.50000024586916
20
56.000000834465027
10
-32.500000484287739
20
56.000000834465027
10
-32.500000484287739
20
50.00000074505806
10
-37.500000558793545
20
50.00000074505806
42
0.41421356237309503
10
-42.500000633299351
20
45.000000670552254
10
-42.500000633299351
20
-10.000000149011612
42
0.41099136551245086
10
-37.449543980922513
20
-14.995136230171259
10
-32.461429843470498
20
-14.995136230171259
10
-32.461429843470498
20
-21.000000312924385
10
-16.463514231462231
20
-21.000000312924385
0
CIRCLE
5
101
100
AcDbEntity
8
0
100
AcDbCircle
10
31.500000469386578
20
-2.500000037252903
30
0
40
1.7500000000000002
0
CIRCLE
5
102
100
AcDbEntity
8
0
100
AcDbCircle
10
31.499999295920134
20
17.499999608844519
30
0
40
1.7500000000000002
0
CIRCLE
5
103
100
AcDbEntity
8
0
100
AcDbCircle
10
31.500000469386578
20
37.500000558793545
30
0
40
1.7500000000000002
0
CIRCLE
5
104
100
AcDbEntity
8
0
100
AcDbCircle
10
24.499999295920134
20
17.500000260770321
30
0
40
3.5000000000000009
0
LWPOLYLINE
5
105
100
AcDbEntity
8
0
100
AcDbPolyline
90
4
70
1
43
0.0
10
34.476346213824897
20
11.499435491067853
10
40.087133141442678
20
11.499435491067853
10
40.087133141442678
20
23.499435491067857
10
34.476346213824897
20
23.499435491067857
0
LWPOLYLINE
5
106
100
AcDbEntity
8
0
100
AcDbPolyline
90
4
70
1
43
0.0
10
40.066674954865164
20
3.4972958283147948
10
34.518636979589047
20
3.4972958283147948
10
34.518636979589047
20
-8.5027041716852061
10
40.066674954865164
20
-8.5027041716852061
0
LWPOLYLINE
5
107
100
AcDbEntity
8
0
100
AcDbPolyline
90
4
70
1
43
0.0
10
40.066674954865164
20
31.487694386721031
10
34.518636979589047
20
31.487694386721031
10
34.518636979589047
20
43.487694386721039
10
40.066674954865164
20
43.487694386721039
0
CIRCLE
5
108
100
AcDbEntity
8
0
100
AcDbCircle
10
24.499999295920134
20
-2.500000037252903
30
0
40
3.5000000000000009
0
CIRCLE
5
109
100
AcDbEntity
8
0
100
AcDbCircle
10
24.499999295920134
20
37.500000558793545
30
0
40
3.5000000000000009
0
CIRCLE
5
110
100
AcDbEntity
8
0
100
AcDbCircle
10
-37.297871515615554
20
37.495216627644339
30
0
40
1.7500000000000002
0
CIRCLE
5
111
100
AcDbEntity
8
0
100
AcDbCircle
10
-37.299987747379106
20
-2.5089708871450913
30
0
40
1.7500000000000002
0
ENDSEC
0
SECTION
2
OBJECTS
0
DICTIONARY
5
C
100
AcDbDictionary
3
ACAD_GROUP
350
D
3
ACAD_MLINESTYLE
350
17
0
DICTIONARY
5
D
100
AcDbDictionary
0
DICTIONARY
5
1A
330
C
100
AcDbDictionary
0
DICTIONARY
5
17
100
AcDbDictionary
0
ENDSEC
0
EOF
